<?xml version="1.0" encoding="UTF-8"?>
<svg width="18px" height="20px" viewBox="0 0 18 20" version="1.1" xmlns="http://www.w3.org/2000/svg" xmlns:xlink="http://www.w3.org/1999/xlink">
    <!-- Generator: Sketch 43.2 (39069) - http://www.bohemiancoding.com/sketch -->
    <title>calendar_icon</title>
    <desc>Created with Sketch.</desc>
    <defs></defs>
    <g id="Page-1" stroke="none" stroke-width="1" fill="none" fill-rule="evenodd">
        <g id="Artboard" transform="translate(-5.000000, -3.000000)" fill-rule="nonzero" fill="#FFFFFF">
            <g id="calendar_icon" transform="translate(5.000000, 3.000000)">
                <path d="M16,18 L2,18 L2,7 L16,7 L16,18 Z M13,0 L13,2 L5,2 L5,0 L3,0 L3,2 L2,2 C0.89,2 0,2.89 0,4 L0,18 C0,19.1045695 0.8954305,20 2,20 L16,20 C17.1045695,20 18,19.1045695 18,18 L18,4 C18,2.89 17.1,2 16,2 L15,2 L15,0 L13,0 Z M14,11 L9,11 L9,16 L14,16 L14,11 Z" id="Shape"></path>
            </g>
        </g>
    </g>
</svg>