<?xml version="1.0" encoding="UTF-8" standalone="no"?>
<svg width="214px" height="50px" viewBox="0 0 214 50" version="1.1" xmlns="http://www.w3.org/2000/svg" xmlns:xlink="http://www.w3.org/1999/xlink">
    <!-- Generator: Sketch 42 (36781) - http://www.bohemiancoding.com/sketch -->
    <title>devanooga_logo</title>
    <desc>Created with Sketch.</desc>
    <defs></defs>
    <g id="Page-1" stroke="none" stroke-width="1" fill="none" fill-rule="evenodd">
        <g id="Mobile-Portrait">
            <g id="devanooga_logo" transform="translate(-15.000000, 0.000000)">
                <path d="M5.94656485,2.37796688 C6.1186103,1.06465204 7.37579417,0 8.75488934,0 L226.236109,0 C227.615058,0 228.59308,1.06745278 228.421402,2.37796688 L222.494387,47.6220331 C222.322342,48.935348 221.065158,50 219.686063,50 L2.20484325,50 C0.825893916,50 -0.152128092,48.9325472 0.0195504635,47.6220331 L5.94656485,2.37796688 Z" id="Rectangle" fill="#E0644F"></path>
                <path d="M43.7152,8.8047619 L43.7152,29.6047619 C43.7152,30.7730217 43.7471997,31.6619017 43.8112,32.2714286 C43.8752003,32.8809554 43.9583995,33.5539646 44.0608,34.2904762 C44.1376004,34.6206366 44.176,34.8999989 44.176,35.1285714 C44.176,35.5349227 43.6576052,35.8396815 42.6208,36.0428571 C41.5839948,36.2460328 40.668804,36.347619 39.8752,36.347619 C39.4143977,36.347619 39.0944009,36.1634939 38.9152,35.7952381 C38.7359991,35.4269823 38.6016004,35.0333354 38.512,34.6142857 C38.4223996,34.195236 38.3648001,33.9095246 38.3392,33.7571429 C37.8783977,34.5952423 37.1936045,35.2809497 36.2848,35.8142857 C35.3759955,36.3476217 34.3456058,36.6142857 33.1936,36.6142857 C31.8111931,36.6142857 30.5760054,36.2142897 29.488,35.4142857 C28.3999946,34.6142817 27.5488031,33.4396903 26.9344,31.8904762 C26.3199969,30.3412621 26.0128,28.4873124 26.0128,26.3285714 C26.0128,23.1793493 26.7231929,20.6841362 28.144,18.8428571 C29.5648071,17.0015781 31.5551872,16.0809524 34.1152,16.0809524 C35.6256076,16.0809524 36.9311945,16.4745992 38.032,17.2619048 L38.032,8.8047619 C38.032,7.99205943 38.7999923,7.58571429 40.336,7.58571429 L41.4112,7.58571429 C42.9472077,7.58571429 43.7152,7.99205943 43.7152,8.8047619 Z M31.7728,26.3285714 C31.7728,30.1127173 32.8095896,32.0047619 34.8832,32.0047619 C36.1120061,32.0047619 37.1615956,31.255563 38.032,29.7571429 L38.032,21.2619048 C37.1615956,20.7793627 36.2656046,20.5380952 35.344,20.5380952 C32.9631881,20.5380952 31.7728,22.4682347 31.7728,26.3285714 Z M63.3184,18.8238095 C64.6624067,20.6523901 65.3344,23.0142712 65.3344,25.9095238 C65.3344,26.2142872 65.0720026,26.6650764 64.5472,27.2619048 C64.0223974,27.8587331 63.6320013,28.1571429 63.376,28.1571429 L53.584,28.1571429 C53.7120006,29.6047691 54.1471963,30.6333303 54.8896,31.2428571 C55.6320037,31.852384 56.6687933,32.1571429 58,32.1571429 C58.7168036,32.1571429 59.3695971,32.074604 59.9584,31.9095238 C60.5472029,31.7444436 61.1615968,31.5349219 61.8016,31.2809524 C62.211202,31.0777768 62.4927992,30.9761905 62.6464,30.9761905 C62.9024013,30.9761905 63.1903984,31.1603156 63.5104,31.5285714 C63.8304016,31.8968272 64.0991989,32.3158707 64.3168,32.7857143 C64.5344011,33.2555579 64.6432,33.617459 64.6432,33.8714286 C64.6432,34.4555585 64.246404,34.9571408 63.4528,35.3761905 C62.659196,35.7952402 61.7120055,36.1063482 60.6112,36.3095238 C59.5103945,36.5126994 58.5504041,36.6142857 57.7312,36.6142857 C54.3519831,36.6142857 51.8368083,35.7190566 50.1856,33.9285714 C48.5343917,32.1380863 47.7088,29.6555714 47.7088,26.4809524 C47.7088,22.8999821 48.5343917,20.271437 50.1856,18.5952381 C51.8368083,16.9190392 54.1215854,16.0809524 57.04,16.0809524 C59.8816142,16.0809524 61.9743933,16.995229 63.3184,18.8238095 Z M53.584,24.3857143 L59.8048,24.3857143 C59.8048,23.2174545 59.5744023,22.2841305 59.1136,21.5857143 C58.6527977,20.8872981 57.9616046,20.5380952 57.04,20.5380952 C55.1455905,20.5380952 53.993602,21.8206221 53.584,24.3857143 Z M85.072,17.147619 C85.072,17.3253977 85.0336004,17.5539669 84.9568,17.8333333 L78.8512,35.5857143 C78.6719991,36.1190503 77.9552063,36.3857143 76.7008,36.3857143 L75.472,36.3857143 C74.2175937,36.3857143 73.5008009,36.1190503 73.3216,35.5857143 L67.216,17.8333333 C67.1135995,17.477776 67.0624,17.2492069 67.0624,17.147619 C67.0624,16.5888861 67.8431922,16.3095238 69.4048,16.3095238 L70.672,16.3095238 C71.9264063,16.3095238 72.6431991,16.5761878 72.8224,17.1095238 L75.088,24.1571429 C75.2160006,24.588891 75.4591982,25.6174522 75.8176,27.2428571 L76.1632,28.7666667 L76.3168,28.7666667 C76.7776023,26.5317349 77.1359987,24.9952423 77.392,24.1571429 L79.6576,17.1095238 C79.8368009,16.5761878 80.5535937,16.3095238 81.808,16.3095238 L82.768,16.3095238 C84.3040077,16.3095238 85.072,16.5888861 85.072,17.147619 Z M105.2704,33.8714286 C105.2704,34.2523829 105.219201,34.7222194 105.1168,35.2809524 C105.04,35.7127006 104.752002,36.0301577 104.2528,36.2333333 C103.753598,36.436509 103.273602,36.5380952 102.8128,36.5380952 C100.508788,36.5380952 99.3568,35.2936632 99.3568,32.8047619 L99.3568,32.4238095 C98.6143963,33.8460389 97.7248052,34.8872983 96.688,35.547619 C95.6511948,36.2079398 94.5440059,36.5380952 93.3664,36.5380952 C92.3935951,36.5380952 91.4208049,36.2904787 90.448,35.7952381 C89.4751951,35.2999975 88.6496034,34.4428632 87.9712,33.2238095 C87.2927966,32.0047558 86.9536,30.366677 86.9536,28.3095238 C86.9536,25.9476072 87.3439961,23.846041 88.1248,22.0047619 C88.9056039,20.1634829 90.0063929,18.7285766 91.4272,17.7 C92.8480071,16.6714234 94.4927907,16.1571429 96.3616,16.1571429 C98.153609,16.1571429 99.7791927,16.8428503 101.2384,18.2142857 C101.468801,17.528568 101.692799,17.039684 101.9104,16.747619 C102.128001,16.4555541 102.479998,16.3095238 102.9664,16.3095238 L103.1968,16.3095238 C103.555202,16.3095238 103.804799,16.3730152 103.9456,16.5 C104.086401,16.6269848 104.1568,16.8301573 104.1568,17.1095238 C104.003199,18.582547 103.708802,21.3634716 103.2736,25.452381 C102.838398,29.5412903 102.6208,31.8015851 102.6208,32.2333333 C102.6208,32.919051 102.742399,33.3507928 102.9856,33.5285714 C103.228801,33.7063501 103.567998,33.7952381 104.0032,33.7952381 C104.182401,33.7952381 104.374399,33.7634924 104.5792,33.7 C104.784001,33.6365076 104.937599,33.6047619 105.04,33.6047619 C105.193601,33.6047619 105.2704,33.6936499 105.2704,33.8714286 Z M100.6624,20.4238095 C99.4079937,19.4333284 98.076807,18.9380952 96.6688,18.9380952 C94.3391884,18.9380952 92.6944048,19.7952295 91.7344,21.5095238 C90.7743952,23.2238181 90.2944,25.4142724 90.2944,28.0809524 C90.2944,30.1127086 90.6399965,31.5666623 91.3312,32.4428571 C92.0224035,33.319052 92.9439942,33.7571429 94.096,33.7571429 C95.1200051,33.7571429 96.1567948,33.2555606 97.2064,32.252381 C98.2560052,31.2492013 99.1391964,29.6047733 99.856,27.3190476 C99.9584005,26.0999939 100.060799,25.0333379 100.1632,24.1190476 C100.265601,23.2047573 100.3296,22.6079379 100.3552,22.3285714 C100.4064,21.8714263 100.508799,21.236512 100.6624,20.4238095 Z M127.168,33.8714286 C127.168,34.2523829 127.116801,34.7222194 127.0144,35.2809524 C126.9376,35.7127006 126.649602,36.0301577 126.1504,36.2333333 C125.651198,36.436509 125.171202,36.5380952 124.7104,36.5380952 C122.406388,36.5380952 121.2544,35.2936632 121.2544,32.8047619 C121.2544,32.246029 121.471998,30.023829 121.9072,26.1380952 C122.188801,23.573003 122.3296,22.150795 122.3296,21.8714286 C122.3296,19.9158632 121.35681,18.9380952 119.4112,18.9380952 C118.361595,18.9380952 117.267206,19.4079318 116.128,20.347619 C114.988794,21.2873063 114.048004,22.8618937 113.3056,25.0714286 C113.049599,27.534933 112.819201,29.7380855 112.6144,31.6809524 C112.409599,33.6238192 112.2688,34.9126952 112.192,35.547619 C112.1152,36.106352 111.577605,36.3857143 110.5792,36.3857143 L110.4256,36.3857143 C109.452795,36.3857143 108.9664,36.1190503 108.9664,35.5857143 C109.145601,34.0111032 109.471998,31.020657 109.9456,26.6142857 C110.419202,22.2079145 110.656,19.6365116 110.656,18.9 C110.656,18.4428549 110.6496,18.1317469 110.6368,17.9666667 C110.624,17.8015865 110.6176,17.6809528 110.6176,17.6047619 C110.6176,17.2492046 110.873597,17.0142863 111.3856,16.9 C111.897603,16.7857137 112.358398,16.7285714 112.768,16.7285714 C113.433603,16.7285714 113.7664,17.5793566 113.7664,19.2809524 L113.7664,20.0047619 C115.660809,17.4396697 117.926387,16.1571429 120.5632,16.1571429 C122.329609,16.1571429 123.615996,16.6015829 124.4224,17.4904762 C125.228804,18.3793695 125.632,19.5857067 125.632,21.1095238 C125.6064,21.515875 125.542401,22.182535 125.44,23.1095238 C125.337599,24.0365126 125.235201,25.0714229 125.1328,26.2142857 C124.723198,29.820653 124.5184,31.8269821 124.5184,32.2333333 C124.5184,32.919051 124.639999,33.3507928 124.8832,33.5285714 C125.126401,33.7063501 125.465598,33.7952381 125.9008,33.7952381 C126.080001,33.7952381 126.271999,33.7634924 126.4768,33.7 C126.681601,33.6365076 126.835199,33.6047619 126.9376,33.6047619 C127.091201,33.6047619 127.168,33.6936499 127.168,33.8714286 Z M146.5408,18.2714286 C147.859207,19.6809594 148.5184,21.7317326 148.5184,24.4238095 C148.5184,28.3095432 147.641609,31.2999895 145.888,33.3952381 C144.134391,35.4904867 141.708815,36.5380952 138.6112,36.5380952 C135.999987,36.5380952 134.022407,35.8396895 132.6784,34.4428571 C131.334393,33.0460248 130.6624,31.014299 130.6624,28.347619 C130.6624,26.1380842 131.020796,24.1127076 131.7376,22.2714286 C132.454404,20.4301495 133.567992,18.9507992 135.0784,17.8333333 C136.588808,16.7158674 138.495988,16.1571429 140.8,16.1571429 C143.308813,16.1571429 145.222393,16.8618977 146.5408,18.2714286 Z M135.616,21.3761905 C134.515194,23.0269924 133.9648,25.3126838 133.9648,28.2333333 C133.9648,30.1127078 134.361596,31.5095192 135.1552,32.4238095 C135.948804,33.3380998 137.164792,33.7952381 138.8032,33.7952381 C140.85121,33.7952381 142.425594,33.0015952 143.5264,31.4142857 C144.627206,29.8269762 145.1776,27.5222373 145.1776,24.5 C145.1776,22.5952286 144.787204,21.1857189 144.0064,20.2714286 C143.225596,19.3571383 142.016008,18.9 140.3776,18.9 C138.30399,18.9 136.716806,19.7253886 135.616,21.3761905 Z M168.3904,18.2714286 C169.708807,19.6809594 170.368,21.7317326 170.368,24.4238095 C170.368,28.3095432 169.491209,31.2999895 167.7376,33.3952381 C165.983991,35.4904867 163.558415,36.5380952 160.4608,36.5380952 C157.849587,36.5380952 155.872007,35.8396895 154.528,34.4428571 C153.183993,33.0460248 152.512,31.014299 152.512,28.347619 C152.512,26.1380842 152.870396,24.1127076 153.5872,22.2714286 C154.304004,20.4301495 155.417592,18.9507992 156.928,17.8333333 C158.438408,16.7158674 160.345588,16.1571429 162.6496,16.1571429 C165.158413,16.1571429 167.071993,16.8618977 168.3904,18.2714286 Z M157.4656,21.3761905 C156.364794,23.0269924 155.8144,25.3126838 155.8144,28.2333333 C155.8144,30.1127078 156.211196,31.5095192 157.0048,32.4238095 C157.798404,33.3380998 159.014392,33.7952381 160.6528,33.7952381 C162.70081,33.7952381 164.275194,33.0015952 165.376,31.4142857 C166.476806,29.8269762 167.0272,27.5222373 167.0272,24.5 C167.0272,22.5952286 166.636804,21.1857189 165.856,20.2714286 C165.075196,19.3571383 163.865608,18.9 162.2272,18.9 C160.15359,18.9 158.566406,19.7253886 157.4656,21.3761905 Z M191.6224,16.5 C191.763201,16.6269848 191.8336,16.8301573 191.8336,17.1095238 L190.1824,32.5380952 C189.875198,35.5349356 189.337604,37.8968168 188.5696,39.6238095 C187.801596,41.3508023 186.790406,42.5761869 185.536,43.3 C184.281594,44.0238131 182.707209,44.3857143 180.8128,44.3857143 C179.583994,44.3857143 178.464005,44.2460331 177.4528,43.9666667 C176.441595,43.6873002 175.648003,43.3317482 175.072,42.9 C174.495997,42.4682518 174.208,42.0619067 174.208,41.6809524 C174.208,40.28412 174.387198,39.5857143 174.7456,39.5857143 C174.8224,39.5857143 175.135997,39.7761886 175.6864,40.1571429 C176.236803,40.5380971 176.934396,40.8809509 177.7792,41.1857143 C178.624004,41.4904777 179.635194,41.6428571 180.8128,41.6428571 C182.707209,41.6428571 184.153595,40.9063566 185.152,39.4333333 C186.150405,37.9603101 186.777599,35.5476358 187.0336,32.1952381 C186.265596,33.6174674 185.350405,34.6587269 184.288,35.3190476 C183.225595,35.9793684 182.080006,36.3095238 180.8512,36.3095238 C179.852795,36.3095238 178.848005,36.0682564 177.8368,35.5857143 C176.825595,35.1031722 175.974403,34.2650853 175.2832,33.0714286 C174.591997,31.8777718 174.2464,30.2904861 174.2464,28.3095238 C174.2464,25.9476072 174.643196,23.846041 175.4368,22.0047619 C176.230404,20.1634829 177.350393,18.7285766 178.7968,17.7 C180.243207,16.6714234 181.92639,16.1571429 183.8464,16.1571429 C185.715209,16.1571429 187.404792,16.8428503 188.9152,18.2142857 C189.145601,17.528568 189.369599,17.039684 189.5872,16.747619 C189.804801,16.4555541 190.156798,16.3095238 190.6432,16.3095238 L190.8736,16.3095238 C191.232002,16.3095238 191.481599,16.3730152 191.6224,16.5 Z M188.3392,20.4238095 C187.007993,19.4333284 185.612807,18.9380952 184.1536,18.9380952 C181.747188,18.9380952 180.051205,19.7952295 179.0656,21.5095238 C178.079995,23.2238181 177.5872,25.4142724 177.5872,28.0809524 C177.5872,30.0111208 177.951996,31.401583 178.6816,32.252381 C179.411204,33.1031789 180.377594,33.5285714 181.5808,33.5285714 C182.630405,33.5285714 183.699195,33.02064 184.7872,32.0047619 C185.875205,30.9888838 186.790396,29.3254084 187.5328,27.0142857 L188.032,22.3285714 C188.0832,21.8714263 188.185599,21.236512 188.3392,20.4238095 Z M213.4528,33.8714286 C213.4528,34.2523829 213.401601,34.7222194 213.2992,35.2809524 C213.2224,35.7127006 212.934402,36.0301577 212.4352,36.2333333 C211.935998,36.436509 211.456002,36.5380952 210.9952,36.5380952 C208.691188,36.5380952 207.5392,35.2936632 207.5392,32.8047619 L207.5392,32.4238095 C206.796796,33.8460389 205.907205,34.8872983 204.8704,35.547619 C203.833595,36.2079398 202.726406,36.5380952 201.5488,36.5380952 C200.575995,36.5380952 199.603205,36.2904787 198.6304,35.7952381 C197.657595,35.2999975 196.832003,34.4428632 196.1536,33.2238095 C195.475197,32.0047558 195.136,30.366677 195.136,28.3095238 C195.136,25.9476072 195.526396,23.846041 196.3072,22.0047619 C197.088004,20.1634829 198.188793,18.7285766 199.6096,17.7 C201.030407,16.6714234 202.675191,16.1571429 204.544,16.1571429 C206.336009,16.1571429 207.961593,16.8428503 209.4208,18.2142857 C209.651201,17.528568 209.875199,17.039684 210.0928,16.747619 C210.310401,16.4555541 210.662398,16.3095238 211.1488,16.3095238 L211.3792,16.3095238 C211.737602,16.3095238 211.987199,16.3730152 212.128,16.5 C212.268801,16.6269848 212.3392,16.8301573 212.3392,17.1095238 C212.185599,18.582547 211.891202,21.3634716 211.456,25.452381 C211.020798,29.5412903 210.8032,31.8015851 210.8032,32.2333333 C210.8032,32.919051 210.924799,33.3507928 211.168,33.5285714 C211.411201,33.7063501 211.750398,33.7952381 212.1856,33.7952381 C212.364801,33.7952381 212.556799,33.7634924 212.7616,33.7 C212.966401,33.6365076 213.119999,33.6047619 213.2224,33.6047619 C213.376001,33.6047619 213.4528,33.6936499 213.4528,33.8714286 Z M208.8448,20.4238095 C207.590394,19.4333284 206.259207,18.9380952 204.8512,18.9380952 C202.521588,18.9380952 200.876805,19.7952295 199.9168,21.5095238 C198.956795,23.2238181 198.4768,25.4142724 198.4768,28.0809524 C198.4768,30.1127086 198.822397,31.5666623 199.5136,32.4428571 C200.204803,33.319052 201.126394,33.7571429 202.2784,33.7571429 C203.302405,33.7571429 204.339195,33.2555606 205.3888,32.252381 C206.438405,31.2492013 207.321596,29.6047733 208.0384,27.3190476 C208.140801,26.0999939 208.243199,25.0333379 208.3456,24.1190476 C208.448001,23.2047573 208.512,22.6079379 208.5376,22.3285714 C208.5888,21.8714263 208.691199,21.236512 208.8448,20.4238095 Z" id="devanooga" fill="#FFFFFF"></path>
            </g>
        </g>
    </g>
</svg>