<?xml version="1.0" encoding="UTF-8" standalone="no"?>
<svg width="21px" height="19px" viewBox="0 0 21 19" version="1.1" xmlns="http://www.w3.org/2000/svg" xmlns:xlink="http://www.w3.org/1999/xlink">
    <!-- Generator: Sketch 42 (36781) - http://www.bohemiancoding.com/sketch -->
    <title>menu-sammich</title>
    <desc>Created with Sketch.</desc>
    <defs></defs>
    <g id="Page-1" stroke="none" stroke-width="1" fill="none" fill-rule="evenodd">
        <g id="Mobile-Portrait" transform="translate(-229.000000, -17.000000)" fill="#FFFFFF">
            <g id="menu-sammich" transform="translate(229.000000, 17.000000)">
                <path d="M2.48783858,0.195081366 C2.50195268,0.0873409024 2.60508832,0 2.71822521,0 L20.5597408,0 C20.6728658,0 20.7530998,0.0875706673 20.7390158,0.195081366 L20.2527811,3.90677066 C20.238667,4.01451112 20.1355313,4.10185202 20.0223944,4.10185202 L2.18087882,4.10185202 C2.06775389,4.10185202 1.98751986,4.01428136 2.00160386,3.90677066 L2.48783858,0.195081366 Z" id="Rectangle"></path>
                <path d="M1.48783858,7.19508137 C1.50195268,7.0873409 1.60508832,7 1.71822521,7 L19.5597408,7 C19.6728658,7 19.7530998,7.08757067 19.7390158,7.19508137 L19.2527811,10.9067707 C19.238667,11.0145111 19.1355313,11.101852 19.0223944,11.101852 L1.18087882,11.101852 C1.06775389,11.101852 0.987519862,11.0142814 1.00160386,10.9067707 L1.48783858,7.19508137 Z" id="Rectangle-Copy"></path>
                <path d="M0.487838581,14.1950814 C0.501952681,14.0873409 0.605088325,14 0.718225212,14 L18.5597408,14 C18.6728658,14 18.7530998,14.0875707 18.7390158,14.1950814 L18.2527811,17.9067707 C18.238667,18.0145111 18.1355313,18.101852 18.0223944,18.101852 L0.180878815,18.101852 C0.0677538926,18.101852 -0.0124801384,18.0142814 0.00160386216,17.9067707 L0.487838581,14.1950814 Z" id="Rectangle-Copy-2"></path>
            </g>
        </g>
    </g>
</svg>