<?xml version="1.0" encoding="UTF-8" standalone="no"?>
<svg width="54px" height="352px" viewBox="0 0 54 352" version="1.1" xmlns="http://www.w3.org/2000/svg" xmlns:xlink="http://www.w3.org/1999/xlink">
    <!-- Generator: Sketch 42 (36781) - http://www.bohemiancoding.com/sketch -->
    <title>social_icons</title>
    <desc>Created with Sketch.</desc>
    <defs></defs>
    <g id="Page-1" stroke="none" stroke-width="1" fill="none" fill-rule="evenodd">
        <g id="social_icons">
            <path d="M27.3529791,96 C19.4274699,96 13,102.426589 13,110.354742 C13,116.696735 17.1125585,122.076459 22.8165636,123.974563 C23.5347412,124.106743 23.7964575,123.663499 23.7964575,123.282821 C23.7964575,122.942678 23.7841207,122.039448 23.7770711,120.841898 C19.7843557,121.708998 18.9419289,118.917358 18.9419289,118.917358 C18.28896,117.25894 17.3478388,116.817459 17.3478388,116.817459 C16.0445446,115.927448 17.4465332,115.945072 17.4465332,115.945072 C18.8872945,116.04641 19.6451262,117.424606 19.6451262,117.424606 C20.9255092,119.617912 23.0051403,118.984329 23.8228935,118.616869 C23.9533111,117.689847 24.3242961,117.057146 24.7340539,116.698497 C21.5467549,116.336324 18.1955529,115.104407 18.1955529,109.603959 C18.1955529,108.037187 18.7551146,106.755041 19.6733246,105.752236 C19.5252831,105.389182 19.0326925,103.929034 19.8143165,101.953385 C19.8143165,101.953385 21.0189164,101.567419 23.7612095,103.424988 C24.9058878,103.105994 26.1342801,102.947378 27.3547415,102.941209 C28.5743218,102.947378 29.8018328,103.105994 30.9482735,103.424988 C33.6888043,101.567419 34.8916417,101.953385 34.8916417,101.953385 C35.6750282,103.929034 35.1824376,105.389182 35.0352773,105.752236 C35.9552496,106.755041 36.5104054,108.037187 36.5104054,109.603959 C36.5104054,115.118507 33.1539161,116.331918 29.9569239,116.687042 C30.4715445,117.130285 30.9306495,118.006198 30.9306495,119.345621 C30.9306495,121.263993 30.9130255,122.81226 30.9130255,123.282821 C30.9130255,123.667024 31.1720982,124.113792 31.8999691,123.973681 C37.5995681,122.071171 41.7086018,116.694973 41.7086018,110.354742 C41.7086018,102.426589 35.2811319,96 27.3529791,96" id="github" fill="#333333"></path>
            <path d="M21.2870671,165.999621 C32.4308625,165.999621 38.5249097,156.767153 38.5249097,148.761492 C38.5249097,148.499144 38.5195943,148.237979 38.5076642,147.97823 C39.6905179,147.123151 40.7188706,146.056044 41.5300007,144.841286 C40.4444779,145.323457 39.276271,145.648526 38.050776,145.794997 C39.3015487,145.045045 40.2619825,143.858282 40.7148545,142.443545 C39.543931,143.137625 38.2479183,143.642357 36.8679223,143.914153 C35.7623191,142.736604 34.1877794,142 32.4455094,142 C29.099406,142 26.3860714,144.713361 26.3860714,148.058198 C26.3860714,148.533636 26.4393435,148.995962 26.5432891,149.439507 C21.5081877,149.186491 17.0431335,146.775402 14.0554062,143.10963 C13.534497,144.004752 13.2348265,145.045045 13.2348265,146.154676 C13.2348265,148.256642 14.3045213,150.112207 15.9309156,151.19774 C14.937172,151.167265 14.0034334,150.894169 13.1868698,150.439875 C13.1855705,150.465153 13.1855705,150.490549 13.1855705,150.517126 C13.1855705,153.45161 15.2741684,155.901325 18.0462086,156.456849 C17.5373476,156.595287 17.0019096,156.669939 16.449108,156.669939 C16.0587214,156.669939 15.6790837,156.631314 15.310195,156.560677 C16.0814005,158.967632 18.3178846,160.719369 20.970033,160.768626 C18.8959639,162.393737 16.2838581,163.362094 13.4453164,163.362094 C12.9564177,163.362094 12.4742518,163.334217 12,163.278228 C14.6814422,164.996536 17.8650125,165.999621 21.2870671,165.999621" id="twitter" fill="#333333"></path>
            <g id="linkedin" transform="translate(14.000000, 185.000000)" fill="#333333">
                <path d="M22.1556111,22.1548889 L18.2996667,22.1548889 L18.2996667,16.1207222 C18.2996667,14.6820556 18.2751111,12.831 16.2962222,12.831 C14.2891667,12.831 13.9829444,14.3989444 13.9829444,16.0181667 L13.9829444,22.1548889 L10.1313333,22.1548889 L10.1313333,9.74711111 L13.8276667,9.74711111 L13.8276667,11.4436111 L13.8811111,11.4436111 C14.3953333,10.4678889 15.6534444,9.43944444 17.5290556,9.43944444 C21.4341111,9.43944444 22.1556111,12.0083889 22.1556111,15.3501111 L22.1556111,22.1548889 Z M5.78355556,8.05205556 C4.54494444,8.05205556 3.54611111,7.05033333 3.54611111,5.81533333 C3.54611111,4.58105556 4.54494444,3.57933333 5.78355556,3.57933333 C7.01711111,3.57933333 8.01811111,4.58105556 8.01811111,5.81533333 C8.01811111,7.05033333 7.01711111,8.05205556 5.78355556,8.05205556 Z M3.85233333,22.1548889 L7.71261111,22.1548889 L7.71261111,9.74711111 L3.85233333,9.74711111 L3.85233333,22.1548889 Z M24.076,0 L1.9175,0 C0.859444444,0 0,0.839222222 0,1.87488889 L0,24.1236667 C0,25.1593333 0.859444444,26 1.9175,26 L24.076,26 C25.1362222,26 25.9992778,25.1593333 25.9992778,24.1236667 L25.9992778,1.87488889 C25.9992778,0.839222222 25.1362222,0 24.076,0 L24.076,0 Z" id="Fill-4"></path>
            </g>
            <path d="M27.1549997,228 L27.1549997,228 L27.1549997,228 C20.4816665,228 15,229.7875 15,232.051667 C15,232.6475 16.43,241.108333 17.0258333,244.445 C17.2641666,245.994166 21.1966665,248.139166 27.1549997,248.139166 L27.1549997,248.139166 L27.1549997,248.139166 C33.1133329,248.139166 36.9266662,245.994166 37.2841662,244.445 C37.8799995,241.108333 39.3099995,232.6475 39.3099995,232.051667 C39.1908328,229.7875 33.8283329,228 27.1549997,228 Z M27.1549997,245.398333 C25.0099998,245.398333 23.3416665,243.73 23.3416665,241.585 C23.3416665,239.44 25.0099998,237.771666 27.1549997,237.771666 C29.2999997,237.771666 30.968333,239.44 30.968333,241.585 C30.968333,243.610833 29.2999997,245.398333 27.1549997,245.398333 Z M27.1549997,233.243333 C22.8649998,233.243333 19.4091666,232.528333 19.4091666,231.575 C19.4091666,230.621667 22.8649998,229.906667 27.1549997,229.906667 C31.4449996,229.906667 34.9008329,230.621667 34.9008329,231.575 C34.9008329,232.528333 31.4449996,233.243333 27.1549997,233.243333 Z M35.8541662,247.6625 C36.0924995,247.6625 36.2116662,247.900833 36.0924995,248.139166 L36.0924995,248.258333 C35.6158329,250.760833 35.2583329,252.548333 35.2583329,252.786666 C34.9008329,254.574166 31.325833,256.004166 27.0358331,256.004166 C22.7458332,256.004166 19.1708332,254.574166 18.8133332,252.786666 C18.8133332,252.548333 18.4558333,250.760833 17.9791666,248.258333 L17.9791666,248.139166 C17.9791666,247.781666 18.2174999,247.6625 18.4558333,247.6625 C18.5749999,247.6625 18.8133332,247.781666 18.8133332,247.781666 C18.8133332,247.781666 21.7924999,250.165 27.1549997,250.165 C32.5174996,250.165 35.4966662,247.781666 35.4966662,247.781666 C35.4966662,247.781666 35.6158329,247.6625 35.8541662,247.6625 Z M27.1549997,243.3725 C26.1019768,243.3725 25.2483331,242.518856 25.2483331,241.465833 C25.2483331,240.41281 26.1019768,239.559166 27.1549997,239.559166 C28.2080226,239.559166 29.0616664,240.41281 29.0616664,241.465833 C29.0616664,242.518856 28.2080226,243.3725 27.1549997,243.3725 Z" id="bitbucket" fill="#333333" fill-rule="nonzero"></path>
            <path d="M35.4059642,298.328974 L35.4059642,290.293078 L38.0730503,290.293078 L38.0730503,300.99606 L14,300.99606 L14,290.293078 L16.6670862,290.293078 L16.6670862,298.328974 L35.4059642,298.328974 Z M19.6112722,289.531053 L20.1654719,286.898604 L33.2584403,289.634966 L32.7042405,292.267414 L19.6112722,289.531053 Z M21.3431463,283.296306 L22.4515457,280.837045 L34.5746646,286.517592 L33.4662652,288.942216 L21.3431463,283.296306 Z M24.7029821,277.338659 L26.4002187,275.295048 L36.687551,283.850506 L34.9903144,285.894117 L24.7029821,277.338659 Z M31.3533787,271 L39.3199997,281.73762 L37.1724758,283.330944 L29.2058548,272.593324 L31.3533787,271 Z M19.3341723,295.62725 L19.3341723,292.960164 L32.7042405,292.960164 L32.7042405,295.62725 L19.3341723,295.62725 Z" id="stackoverflow" fill="#333333" fill-rule="nonzero"></path>
            <g id="gitlab" transform="translate(12.000000, 316.000000)" fill-rule="nonzero">
                <path d="M1.74093264,10.7922047 L9.59732642,10.7922047 L6.22093264,0.401012955 C6.04727461,-0.133743521 5.29083938,-0.133598444 5.11718135,0.401012955 L1.74093264,10.7922047 Z" id="Fill-16" fill="#333333"></path>
                <path d="M28.6025078,10.7922047 L20.746114,10.7922047 L24.1225078,0.401012955 C24.2961658,-0.133743521 25.052601,-0.133598444 25.2262591,0.401012955 L28.6025078,10.7922047 Z" id="Fill-22" fill="#333333"></path>
                <polygon id="Fill-4" fill="#333333" points="15.1809326 27.9885389 15.1809326 27.9885389 20.7867358 10.7357513 9.57512953 10.7357513"></polygon>
                <polygon id="Fill-8" fill="#6B6B6B" points="15.2031295 27.9885389 9.59732642 10.7357513 1.74093264 10.7357513"></polygon>
                <path d="M1.76039277,10.7357513 L1.76039277,10.7357513 L0.0568901755,15.978715 C-0.0984880629,16.4568912 0.0716881029,16.9807668 0.47848603,17.2762902 L15.2225897,27.9885389 L1.76039277,10.7357513 Z" id="Fill-12" fill="#9E9E9E"></path>
                <polygon id="Fill-18" fill="#6B6B6B" points="15.2331606 27.9885389 20.7813416 10.7357513 28.6953575 10.7357513"></polygon>
                <path d="M28.6953575,10.7357513 L28.6953575,10.7357513 L30.3988601,15.978715 C30.5542383,16.4568912 30.3840622,16.9807668 29.9772642,17.2762902 L15.2331606,27.9885389 L28.6953575,10.7357513 Z" id="Fill-20" fill="#9E9E9E"></path>
            </g>
            <path d="M21.1336037,29.167899 L19.8303585,27.8646538 L32.8645962,14.8304161 L34.1678414,16.1336613 L21.1336037,29.167899 Z M27.4104358,25.499343 L23.7418798,29.167899 L22.4368489,30.4729299 L21.1336037,31.7761751 C20.4135787,32.4962001 19.2471383,32.4962001 18.5271133,31.7761751 L17.2238681,30.4729299 C16.5038431,29.7511193 16.5038431,28.5864645 17.2238681,27.8646538 L18.5271133,26.5614086 L19.8303585,25.2581634 L23.5007002,21.5878217 C21.4468434,20.6140023 18.9213414,20.9541997 17.2238681,22.651673 L14.6173777,25.2581634 C12.4608741,27.414667 12.4608741,30.9229743 14.6173777,33.0794203 L15.9206229,34.3826655 C18.0771265,36.5391691 21.5854338,36.5391691 23.7418798,34.3826655 L26.3483702,31.7761751 C28.0458435,30.0787018 28.3842552,27.5514142 27.4104358,25.499343 Z M39.3826655,10.9206229 L38.0794203,9.6173777 C35.9229167,7.4608741 32.4146094,7.4608741 30.2581634,9.6173777 L27.651673,12.2238681 C25.9541997,13.9213414 25.6140023,16.4468434 26.5878217,18.5007002 L30.2581634,14.8303585 L31.5614086,13.5271133 L32.8646538,12.2238681 C33.5846788,11.5038431 34.7511193,11.5038431 35.4729299,12.2238681 L36.7761751,13.5271133 C37.4962001,14.2471383 37.4944144,15.4153644 36.7761751,16.1336037 L35.4729299,17.4368489 L34.167899,18.7418798 L30.4975573,22.4122215 C32.5514142,23.3842552 35.0787018,23.0458435 36.7761751,21.3483702 L39.3826655,18.7418798 C41.5391115,16.5854338 41.5391115,13.0771265 39.3826655,10.9206229 Z" id="link" fill="#333333" fill-rule="nonzero"></path>
            <path d="M21.1336037,73.167899 L19.8303585,71.8646538 L32.8645962,58.8304161 L34.1678414,60.1336613 L21.1336037,73.167899 Z M27.4104358,69.499343 L23.7418798,73.167899 L22.4368489,74.4729299 L21.1336037,75.7761751 C20.4135787,76.4962001 19.2471383,76.4962001 18.5271133,75.7761751 L17.2238681,74.4729299 C16.5038431,73.7511193 16.5038431,72.5864645 17.2238681,71.8646538 L18.5271133,70.5614086 L19.8303585,69.2581634 L23.5007002,65.5878217 C21.4468434,64.6140023 18.9213414,64.9541997 17.2238681,66.651673 L14.6173777,69.2581634 C12.4608741,71.414667 12.4608741,74.9229743 14.6173777,77.0794203 L15.9206229,78.3826655 C18.0771265,80.5391691 21.5854338,80.5391691 23.7418798,78.3826655 L26.3483702,75.7761751 C28.0458435,74.0787018 28.3842552,71.5514142 27.4104358,69.499343 Z M39.3826655,54.9206229 L38.0794203,53.6173777 C35.9229167,51.4608741 32.4146094,51.4608741 30.2581634,53.6173777 L27.651673,56.2238681 C25.9541997,57.9213414 25.6140023,60.4468434 26.5878217,62.5007002 L30.2581634,58.8303585 L31.5614086,57.5271133 L32.8646538,56.2238681 C33.5846788,55.5038431 34.7511193,55.5038431 35.4729299,56.2238681 L36.7761751,57.5271133 C37.4962001,58.2471383 37.4944144,59.4153644 36.7761751,60.1336037 L35.4729299,61.4368489 L34.167899,62.7418798 L30.4975573,66.4122215 C32.5514142,67.3842552 35.0787018,67.0458435 36.7761751,65.3483702 L39.3826655,62.7418798 C41.5391115,60.5854338 41.5391115,57.0771265 39.3826655,54.9206229 Z" id="link-(white)" fill="#FFFFFF" fill-rule="nonzero"></path>
        </g>
    </g>
</svg>