<?xml version="1.0" encoding="UTF-8" standalone="no"?>
<svg
   xmlns:dc="http://purl.org/dc/elements/1.1/"
   xmlns:cc="http://creativecommons.org/ns#"
   xmlns:rdf="http://www.w3.org/1999/02/22-rdf-syntax-ns#"
   xmlns:svg="http://www.w3.org/2000/svg"
   xmlns="http://www.w3.org/2000/svg"
   xmlns:sodipodi="http://sodipodi.sourceforge.net/DTD/sodipodi-0.dtd"
   xmlns:inkscape="http://www.inkscape.org/namespaces/inkscape"
   width="40"
   height="475.51147"
   viewBox="0 0 40 475.51147"
   version="1.1"
   id="svg3819"
   sodipodi:docname="social_icons.svg"
   inkscape:version="0.92.4 5da689c313, 2019-01-14">
  <metadata
     id="metadata3823">
    <rdf:RDF>
      <cc:Work
         rdf:about="">
        <dc:format>image/svg+xml</dc:format>
        <dc:type
           rdf:resource="http://purl.org/dc/dcmitype/StillImage" />
        <dc:title>social_icons</dc:title>
      </cc:Work>
    </rdf:RDF>
  </metadata>
  <sodipodi:namedview
     pagecolor="#ffffff"
     bordercolor="#666666"
     borderopacity="1"
     objecttolerance="10"
     gridtolerance="10"
     guidetolerance="10"
     inkscape:pageopacity="0"
     inkscape:pageshadow="2"
     inkscape:window-width="1920"
     inkscape:window-height="1050"
     id="namedview3821"
     showgrid="false"
     fit-margin-top="0"
     fit-margin-left="0"
     fit-margin-right="0"
     fit-margin-bottom="0"
     inkscape:zoom="1.9159091"
     inkscape:cx="-187.58912"
     inkscape:cy="138.24456"
     inkscape:window-x="0"
     inkscape:window-y="0"
     inkscape:window-maximized="0"
     inkscape:current-layer="layer2" />
  <!-- Generator: Sketch 43.2 (39069) - http://www.bohemiancoding.com/sketch -->
  <title
     id="title3788">social_icons</title>
  <desc
     id="desc3790">Created with Sketch.</desc>
  <defs
     id="defs3792" />
  <g
     id="Page-1"
     style="fill:none;fill-rule:evenodd;stroke:none;stroke-width:1"
     transform="translate(-7.1158062,-8)">
    <g
       id="social_icons">
      <path
         d="M 27.352979,96 C 19.42747,96 13,102.42659 13,110.35474 c 0,6.342 4.112558,11.72172 9.816564,13.61982 0.718177,0.13218 0.979893,-0.31106 0.979893,-0.69174 0,-0.34014 -0.01234,-1.24337 -0.01939,-2.44092 -3.992715,0.8671 -4.835142,-1.92454 -4.835142,-1.92454 -0.652969,-1.65842 -1.59409,-2.0999 -1.59409,-2.0999 -1.303294,-0.89001 0.09869,-0.87239 0.09869,-0.87239 1.440761,0.10134 2.198593,1.47954 2.198593,1.47954 1.280383,2.1933 3.360014,1.55972 4.177767,1.19226 0.130418,-0.92702 0.501403,-1.55972 0.911161,-1.91837 -3.187299,-0.36218 -6.538501,-1.59409 -6.538501,-7.09454 0,-1.56677 0.559562,-2.84892 1.477772,-3.85172 -0.148042,-0.36306 -0.640633,-1.82321 0.140991,-3.79886 0,0 1.2046,-0.38596 3.946893,1.47161 1.144679,-0.319 2.373071,-0.47761 3.593532,-0.48378 1.219581,0.006 2.447092,0.16478 3.593532,0.48378 2.740531,-1.85757 3.943369,-1.47161 3.943369,-1.47161 0.783386,1.97565 0.290796,3.4358 0.143635,3.79886 0.919973,1.0028 1.475128,2.28495 1.475128,3.85172 0,5.51455 -3.356489,6.72796 -6.553481,7.08308 0.51462,0.44325 0.973725,1.31916 0.973725,2.65858 0,1.91837 -0.01762,3.46664 -0.01762,3.9372 0,0.3842 0.259073,0.83097 0.986944,0.69086 5.699599,-1.90251 9.808633,-7.27871 9.808633,-13.61894 C 41.708602,102.42659 35.281132,96 27.352979,96"
         id="github"
         inkscape:connector-curvature="0"
         style="fill:#333333" />
      <path
         d="m 21.287067,165.99962 c 11.143796,0 17.237843,-9.23247 17.237843,-17.23813 0,-0.26235 -0.0053,-0.52351 -0.01725,-0.78326 1.182854,-0.85508 2.211207,-1.92219 3.022337,-3.13694 -1.085523,0.48217 -2.25373,0.80724 -3.479225,0.95371 1.250773,-0.74996 2.211207,-1.93672 2.664079,-3.35146 -1.170924,0.69409 -2.466937,1.19882 -3.846933,1.47061 C 35.762319,142.7366 34.187779,142 32.445509,142 c -3.346103,0 -6.059438,2.71336 -6.059438,6.0582 0,0.47544 0.05327,0.93776 0.157218,1.38131 -5.035101,-0.25302 -9.500156,-2.66411 -12.487883,-6.32988 -0.520909,0.89512 -0.820579,1.93541 -0.820579,3.04505 0,2.10196 1.069694,3.95753 2.696089,5.04306 -0.993744,-0.0305 -1.927483,-0.30357 -2.744046,-0.75787 -0.0013,0.0253 -0.0013,0.0507 -0.0013,0.0773 0,2.93448 2.088597,5.3842 4.860638,5.93972 -0.508861,0.13844 -1.044299,0.21309 -1.597101,0.21309 -0.390387,0 -0.770024,-0.0386 -1.138913,-0.10926 0.771205,2.40695 3.00769,4.15869 5.659838,4.20795 -2.074069,1.62511 -4.686175,2.59346 -7.524717,2.59346 -0.488898,0 -0.971064,-0.0279 -1.445316,-0.0839 2.681442,1.71831 5.865012,2.72139 9.287067,2.72139"
         id="twitter"
         inkscape:connector-curvature="0"
         style="fill:#333333" />
      <g
         id="linkedin"
         transform="translate(14,185)"
         style="fill:#333333">
        <path
           d="m 22.155611,22.154889 h -3.855944 v -6.034167 c 0,-1.438666 -0.02456,-3.289722 -2.003445,-3.289722 -2.007055,0 -2.313278,1.567944 -2.313278,3.187167 v 6.136722 H 10.131333 V 9.7471111 h 3.696334 v 1.6964999 h 0.05344 c 0.514222,-0.975722 1.772333,-2.0041666 3.647945,-2.0041666 3.905055,0 4.626555,2.5689446 4.626555,5.9106666 z M 5.7835556,8.0520556 c -1.2386112,0 -2.2374445,-1.0017223 -2.2374445,-2.2367223 0,-1.2342777 0.9988333,-2.236 2.2374445,-2.236 1.2335555,0 2.2345555,1.0017223 2.2345555,2.236 0,1.235 -1.001,2.2367223 -2.2345555,2.2367223 z M 3.8523333,22.154889 H 7.7126111 V 9.7471111 H 3.8523333 Z M 24.076,0 H 1.9175 C 0.85944444,0 0,0.83922222 0,1.8748889 V 24.123667 C 0,25.159333 0.85944444,26 1.9175,26 H 24.076 c 1.060222,0 1.923278,-0.840667 1.923278,-1.876333 V 1.8748889 C 25.999278,0.83922222 25.136222,0 24.076,0 Z"
           id="Fill-4"
           inkscape:connector-curvature="0" />
      </g>
      <path
         d="m 27.155,228 v 0 0 C 20.481666,228 15,229.7875 15,232.05167 c 0,0.59583 1.43,9.05666 2.025833,12.39333 0.238334,1.54917 4.170833,3.69417 10.129167,3.69417 v 0 0 c 5.958333,0 9.771666,-2.145 10.129166,-3.69417 C 37.879999,241.10833 39.31,232.6475 39.31,232.05167 39.190833,229.7875 33.828333,228 27.155,228 Z m 0,17.39833 c -2.145,0 -3.813334,-1.66833 -3.813334,-3.81333 0,-2.145 1.668334,-3.81333 3.813334,-3.81333 2.145,0 3.813333,1.66833 3.813333,3.81333 0,2.02583 -1.668333,3.81333 -3.813333,3.81333 z m 0,-12.155 c -4.29,0 -7.745833,-0.715 -7.745833,-1.66833 0,-0.95333 3.455833,-1.66833 7.745833,-1.66833 4.29,0 7.745833,0.715 7.745833,1.66833 0,0.95333 -3.455833,1.66833 -7.745833,1.66833 z m 8.699166,14.41917 c 0.238334,0 0.3575,0.23833 0.238334,0.47667 v 0.11916 c -0.476667,2.5025 -0.834167,4.29 -0.834167,4.52834 -0.3575,1.7875 -3.9325,3.2175 -8.2225,3.2175 -4.29,0 -7.865,-1.43 -8.2225,-3.2175 0,-0.23834 -0.3575,-2.02584 -0.834166,-4.52834 v -0.11916 c 0,-0.3575 0.238333,-0.47667 0.476666,-0.47667 0.119167,0 0.3575,0.11917 0.3575,0.11917 0,0 2.979167,2.38333 8.341667,2.38333 5.3625,0 8.341666,-2.38333 8.341666,-2.38333 0,0 0.119167,-0.11917 0.3575,-0.11917 z m -8.699166,-4.29 c -1.053023,0 -1.906667,-0.85364 -1.906667,-1.90667 0,-1.05302 0.853644,-1.90666 1.906667,-1.90666 1.053023,0 1.906666,0.85364 1.906666,1.90666 0,1.05303 -0.853643,1.90667 -1.906666,1.90667 z"
         id="bitbucket"
         inkscape:connector-curvature="0"
         style="fill:#333333;fill-rule:nonzero" />
      <path
         d="m 35.405964,298.32897 v -8.03589 h 2.667086 v 10.70298 H 14 v -10.70298 h 2.667086 v 8.03589 z m -15.794692,-8.79792 0.5542,-2.63245 13.092968,2.73637 -0.5542,2.63244 z m 1.731874,-6.23474 1.1084,-2.45927 12.123119,5.68055 -1.1084,2.42463 z m 3.359836,-5.95765 1.697237,-2.04361 10.287332,8.55546 -1.697237,2.04361 z M 31.353379,271 39.32,281.73762 l -2.147524,1.59332 -7.966621,-10.73762 z m -12.019207,24.62725 v -2.66709 H 32.70424 v 2.66709 z"
         id="stackoverflow"
         inkscape:connector-curvature="0"
         style="fill:#333333;fill-rule:nonzero" />
      <g
         id="gitlab"
         transform="translate(12,316)"
         style="fill-rule:nonzero">
        <path
           d="M 1.7409326,10.792205 H 9.5973264 L 6.2209326,0.40101295 c -0.173658,-0.53475647 -0.9300932,-0.53461139 -1.1037513,0 z"
           id="Fill-16"
           inkscape:connector-curvature="0"
           style="fill:#333333" />
        <path
           d="M 28.602508,10.792205 H 20.746114 L 24.122508,0.40101295 c 0.173658,-0.53475647 0.930093,-0.53461139 1.103751,0 z"
           id="Fill-22"
           inkscape:connector-curvature="0"
           style="fill:#333333" />
        <polygon
           id="polygon3802"
           points="9.5751295,10.735751 15.180933,27.988539 20.786736,10.735751 "
           style="fill:#333333" />
        <polygon
           id="Fill-8"
           points="15.203129,27.988539 9.5973264,10.735751 1.7409326,10.735751 "
           style="fill:#6b6b6b" />
        <path
           d="m 1.7603928,10.735751 v 0 l -1.70350262,5.242964 c -0.15537824,0.478176 0.01479792,1.002052 0.42159585,1.297575 L 15.22259,27.988539 Z"
           id="Fill-12"
           inkscape:connector-curvature="0"
           style="fill:#9e9e9e" />
        <polygon
           id="Fill-18"
           points="15.233161,27.988539 20.781342,10.735751 28.695358,10.735751 "
           style="fill:#6b6b6b" />
        <path
           d="m 28.695357,10.735751 v 0 l 1.703503,5.242964 c 0.155378,0.478176 -0.0148,1.002052 -0.421596,1.297575 L 15.233161,27.988539 Z"
           id="Fill-20"
           inkscape:connector-curvature="0"
           style="fill:#9e9e9e" />
      </g>
      <path
         d="m 21.133604,29.167899 -1.303246,-1.303245 13.034238,-13.034238 1.303245,1.303245 z m 6.276832,-3.668556 -3.668556,3.668556 -1.305031,1.305031 -1.303245,1.303245 c -0.720025,0.720025 -1.886466,0.720025 -2.606491,0 L 17.223868,30.47293 c -0.720025,-0.721811 -0.720025,-1.886465 0,-2.608276 l 1.303245,-1.303245 1.303245,-1.303246 3.670342,-3.670341 c -2.053857,-0.97382 -4.579359,-0.633622 -6.276832,1.063851 l -2.60649,2.60649 c -2.156504,2.156504 -2.156504,5.664811 0,7.821257 l 1.303245,1.303246 c 2.156503,2.156503 5.664811,2.156503 7.821257,0 l 2.60649,-2.606491 c 1.697473,-1.697473 2.035885,-4.224761 1.062066,-6.276832 z M 39.382666,10.920623 38.07942,9.6173777 c -2.156503,-2.1565036 -5.664811,-2.1565036 -7.821257,0 l -2.60649,2.6064903 C 25.9542,13.921341 25.614002,16.446843 26.587822,18.5007 l 3.670341,-3.670341 1.303246,-1.303246 1.303245,-1.303245 c 0.720025,-0.720025 1.886465,-0.720025 2.608276,0 l 1.303245,1.303245 c 0.720025,0.720025 0.718239,1.888251 0,2.606491 l -1.303245,1.303245 -1.305031,1.305031 -3.670342,3.670341 c 2.053857,0.972034 4.581145,0.633622 6.278618,-1.063851 l 2.606491,-2.60649 c 2.156445,-2.156446 2.156445,-5.664753 0,-7.821257 z"
         id="link"
         inkscape:connector-curvature="0"
         style="fill:#333333;fill-rule:nonzero" />
      <path
         d="m 21.133604,73.167899 -1.303246,-1.303245 13.034238,-13.034238 1.303245,1.303245 z m 6.276832,-3.668556 -3.668556,3.668556 -1.305031,1.305031 -1.303245,1.303245 c -0.720025,0.720025 -1.886466,0.720025 -2.606491,0 L 17.223868,74.47293 c -0.720025,-0.721811 -0.720025,-1.886465 0,-2.608276 l 1.303245,-1.303245 1.303245,-1.303246 3.670342,-3.670341 c -2.053857,-0.97382 -4.579359,-0.633622 -6.276832,1.063851 l -2.60649,2.60649 c -2.156504,2.156504 -2.156504,5.664811 0,7.821257 l 1.303245,1.303246 c 2.156503,2.156503 5.664811,2.156503 7.821257,0 l 2.60649,-2.606491 c 1.697473,-1.697473 2.035885,-4.224761 1.062066,-6.276832 z m 11.97223,-14.57872 -1.303246,-1.303245 c -2.156503,-2.156504 -5.664811,-2.156504 -7.821257,0 l -2.60649,2.60649 C 25.9542,57.921341 25.614002,60.446843 26.587822,62.5007 l 3.670341,-3.670341 1.303246,-1.303246 1.303245,-1.303245 c 0.720025,-0.720025 1.886465,-0.720025 2.608276,0 l 1.303245,1.303245 c 0.720025,0.720025 0.718239,1.888251 0,2.606491 l -1.303245,1.303245 -1.305031,1.305031 -3.670342,3.670341 c 2.053857,0.972034 4.581145,0.633623 6.278618,-1.063851 l 2.606491,-2.60649 c 2.156445,-2.156446 2.156445,-5.664754 0,-7.821257 z"
         id="link-(white)"
         inkscape:connector-curvature="0"
         style="fill:#ffffff;fill-rule:nonzero" />
      <path
         d="M 15.434952,361 C 14.64227,361 14,361.64227 14,362.43495 v 23.1301 C 14,386.35753 14.64227,387 15.434952,387 h 12.452419 v -10.06853 h -3.388259 v -3.92395 h 3.388259 v -2.89377 c 0,-3.35826 2.051114,-5.18687 5.04688,-5.18687 1.434952,0 2.668348,0.10686 3.027719,0.1546 v 3.50954 l -2.077709,9.7e-4 c -1.629298,0 -1.944734,0.77418 -1.944734,1.91025 v 2.50528 h 3.885669 l -0.505983,3.92395 H 31.939527 V 387 h 6.625521 C 39.357535,387 40,386.35753 40,385.56505 v -23.1301 C 40,361.64227 39.357535,361 38.565048,361 Z"
         id="facebook"
         inkscape:connector-curvature="0"
         style="fill:#333333" />
      <g
         id="Group"
         transform="translate(13,403)">
        <path
           d="M 2.6324665,29.133858 C 2.396246,28.622047 2.0812854,27.913386 1.923805,27.559055 L 1.6875846,26.889764 0.900183,27.755905 0.11278142,28.622047 0.03404127,26.968504 C -0.08406897,24.606299 0.11278142,22.165354 0.50648221,20.433071 1.411994,16.574803 4.2466397,13.070866 7.908057,11.220472 l 0.8267717,-0.3937 -0.1968504,-0.590551 C 8.419868,9.9212598 8.3017578,9.2519685 8.2623877,8.8188976 L 8.1836476,7.992126 7.3568759,7.9133858 C 6.0970334,7.7952756 5.427742,7.4409449 4.9946712,6.5354331 4.7584507,6.0629921 4.7584507,5.984252 4.8371909,4.7244094 4.915931,3.0708661 5.0340413,2.7165354 5.5458523,2.1653543 6.1757735,1.4566929 6.6088444,1.3385827 8.1836476,1.4173228 c 1.1417322,0.07874 1.3779527,0.1181103 1.8897634,0.3543307 0.314961,0.1574804 0.590552,0.3149607 0.629922,0.3149607 0.03937,0 0.3937,-0.4330709 0.826771,-1.0236221 L 12.278136,0 12.750577,0.27559055 c 0.27559,0.15748032 0.590551,0.35433071 0.748031,0.43307087 l 0.275591,0.15748031 -0.236221,0.59055117 c -0.11811,0.3149606 -0.27559,0.8661418 -0.31496,1.1417323 l -0.07874,0.5511811 0.669292,0.07874 c 2.401575,0.2362204 4.212598,1.6929133 4.88189,3.8976377 0.19685,0.7086615 0.19685,2.0866142 0,2.7559056 -0.196851,0.6299214 -0.196851,0.6692914 -0.03937,0.6692914 0.275591,0 2.125985,0.905512 2.874016,1.377953 1.456693,0.944882 3.149607,2.598425 4.094488,4.015748 1.771654,2.637795 2.519685,5.511811 2.204725,8.661417 -0.15748,1.889764 -0.511811,3.385827 -1.141732,4.84252 L 26.451364,30 H 25.467112 24.48286 l 0.472441,-0.944882 c 0.511811,-1.023622 0.905512,-2.440945 1.102362,-3.700787 0.118111,-0.866142 0.157481,-3.228347 0.03937,-3.661418 l -0.07874,-0.27559 -0.511811,0.551181 c -1.259842,1.377953 -3.110236,1.771653 -5.590551,1.102362 -2.125984,-0.551181 -2.992126,-0.669291 -5,-0.669291 -1.535433,0 -2.047244,0.03937 -2.874016,0.23622 -2.2834643,0.511811 -3.8976375,1.259843 -6.141732,2.874016 -0.8267717,0.590551 -1.496063,1.062992 -1.5354331,1.062992 -0.03937,0 0.07874,-0.393701 0.2362205,-0.905512 0.1574803,-0.511811 0.4330709,-1.338582 0.5905512,-1.889763 l 0.3149606,-0.984252 -0.3543307,0.35433 C 4.9553011,23.346457 4.40412,23.897638 3.9316791,24.409449 l -0.8267717,0.905512 0.1968504,0.748031 c 0.2362205,0.984252 0.7874016,2.204724 1.3779528,3.110236 0.2362204,0.393701 0.4330708,0.708662 0.4330708,0.748032 0,0.03937 -0.4724409,0.03937 -1.023622,0.03937 H 3.0655373 Z m 3.4645669,-9.527559 c 1.8897638,-2.007874 3.4251968,-3.622047 3.4645669,-3.622047 0.03937,0.03937 -0.1574803,0.629921 -0.3543307,1.299213 -1.2992126,4.094488 -1.5748031,4.881889 -1.5354331,4.921259 0,0 0.472441,-0.15748 0.984252,-0.35433 3.3464565,-1.456693 7.2440945,-1.653544 11.3779525,-0.551181 1.850394,0.47244 2.559055,0.47244 3.464567,0 0.511811,-0.275591 0.708662,-0.433071 0.944882,-0.826772 0.433071,-0.669291 0.472441,-1.614173 0.19685,-2.480315 -0.669291,-1.889764 -3.267716,-4.330709 -5.708661,-5.393701 -1.259842,-0.551181 -1.338583,-0.551181 -1.614173,-0.27559 l -0.236221,0.23622 1.023622,1.259843 c 0.551181,0.669291 1.141733,1.417323 1.220473,1.614173 0.23622,0.472441 0.27559,1.220472 0.03937,1.692913 -0.314961,0.669292 -1.259843,1.141732 -2.007874,0.984252 -0.314961,-0.07874 -0.433071,-0.03937 -0.748032,0.196851 -0.866141,0.629921 -1.811023,0.472441 -2.598425,-0.472441 -0.629921,-0.708662 -0.787401,-1.062993 -0.826771,-1.771654 0,-0.354331 -0.118111,-0.787401 -0.196851,-0.944882 -0.11811,-0.23622 -0.15748,-0.511811 -0.15748,-0.866141 l 0.03937,-0.551182 -0.511811,-0.11811 c -0.708661,-0.19685 -1.535433,-0.590551 -2.007874,-0.944882 -0.236221,-0.15748 -0.433071,-0.31496 -0.5118111,-0.31496 -0.07874,0 -0.5905512,0.23622 -1.1417323,0.511811 -3.8188977,1.968504 -6.2992126,5.629921 -6.6929134,9.763779 -0.03937,0.393701 -0.07874,0.905512 -0.1181102,1.102362 l -0.03937,0.354331 0.4330709,-0.433071 c 0.1968504,-0.19685 1.9291338,-2.007874 3.8188975,-4.015748 z M 16.293884,16.692913 c 0.354331,-0.27559 0.669291,-0.511811 0.748031,-0.511811 0.03937,0 0.157481,0.118111 0.275591,0.275591 0.19685,0.31496 0.551181,0.31496 0.708661,0.03937 0.11811,-0.19685 0.11811,-0.23622 -2.204724,-3.070866 -1.377953,-1.692914 -1.653543,-1.968504 -1.850394,-1.968504 -0.472441,0.03937 -0.354331,0.393701 0.393701,1.299213 l 0.708661,0.866141 -0.3937,0.314961 c -0.433071,0.393701 -0.472441,0.472441 -0.196851,0.708661 0.196851,0.196851 0.236221,0.157481 0.629921,-0.11811 l 0.433071,-0.27559 0.275591,0.23622 c 0.15748,0.11811 0.23622,0.314961 0.23622,0.354331 0,0.07874 -0.31496,0.35433 -0.669291,0.669291 -0.354331,0.275591 -0.629921,0.590551 -0.629921,0.669291 0,0.118111 0.19685,0.433071 0.551181,0.866142 0.11811,0.236221 0.31496,0.15748 0.984252,-0.354331 z M 14.049789,9.8425197 c 0.433071,0 1.062992,0.3543303 1.496063,0.8267713 l 0.393701,0.472441 0.354331,-0.433071 C 17.278136,9.6062992 17.396246,8.0708661 16.608844,6.7322835 16.018293,5.7480315 14.915931,5.1574803 13.380498,5 12.553726,4.9212598 12.356876,4.8425197 11.923805,4.4094488 l -0.314961,-0.3149606 -0.15748,0.2362205 c -0.31496,0.4724409 -0.984252,2.007874 -1.181102,2.5984252 -0.2755908,0.9055118 -0.157481,2.3228346 0.19685,3.031496 0.354331,0.6692911 1.299213,1.5748031 1.574803,1.4566931 0.03937,0.03937 0.118111,-0.11811 0.196851,-0.314961 0.23622,-0.708661 1.023622,-1.2598423 1.811023,-1.2598423 z M 8.7348287,5.7480315 C 8.8135688,5.5511811 9.0104192,5.0393701 9.2072696,4.6456693 9.40412,4.2519685 9.5616003,3.8582677 9.5616003,3.7401575 c 0,-0.3543307 -0.3937008,-0.511811 -1.4566929,-0.5905512 -0.9448819,-0.07874 -1.023622,-0.03937 -1.2204724,0.1574803 -0.1574804,0.1574803 -0.2362205,0.3543307 -0.2362205,0.6299213 0,0.2362204 -0.03937,0.6692913 -0.07874,1.023622 -0.07874,0.8267717 0.03937,0.984252 0.8661418,1.1023622 1.2204724,0.07874 1.1811023,0.07874 1.2992124,-0.3149606 z M 7.5143562,4.8031496 c 0,-0.6692913 0.07874,-0.7480315 0.6299213,-0.7480315 h 0.511811 V 4.6062992 5.1574803 H 8.1049074 7.5537263 V 4.8031496 Z m 2.480315,22.9527554 c -0.2362205,-0.23622 -0.3149606,-0.3937 -0.3149606,-0.787401 0,-0.748032 0.4330704,-1.181102 1.1417324,-1.181102 0.669291,0 1.141732,0.472441 1.141732,1.141732 0,0.708661 -0.433071,1.102362 -1.181102,1.141732 -0.393701,0 -0.551181,-0.07874 -0.7874018,-0.314961 z m 7.5984248,0.118111 c -0.905511,-0.708662 -0.433071,-2.086614 0.708662,-2.086614 0.708661,0 1.102362,0.43307 1.141732,1.181102 0,0.433071 -0.03937,0.551181 -0.314961,0.787401 -0.27559,0.236221 -0.3937,0.314961 -0.787401,0.314961 -0.354331,0 -0.590551,-0.07874 -0.748032,-0.19685 z"
           id="Shape"
           inkscape:connector-curvature="0"
           style="fill:#333333;fill-rule:nonzero" />
        <path
           d="m 14.049789,9.8425197 c 0.433071,0 1.062992,0.3543303 1.496063,0.8267713 l 0.393701,0.472441 0.354331,-0.433071 C 17.278136,9.6062992 17.396246,8.0708661 16.608844,6.7322835 16.018293,5.7480315 14.915931,5.1574803 13.380498,5 12.553726,4.9212598 12.356876,4.8425197 11.923805,4.4094488 l -0.314961,-0.3149606 -0.15748,0.2362205 c -0.31496,0.4724409 -0.984252,2.007874 -1.181102,2.5984252 -0.2755908,0.9055118 -0.157481,2.3228346 0.19685,3.031496 0.354331,0.6692911 1.299213,1.5748031 1.574803,1.4566931 0.03937,0.03937 0.118111,-0.11811 0.196851,-0.314961 0.23622,-0.708661 1.023622,-1.2598423 1.811023,-1.2598423 z"
           id="Path"
           inkscape:connector-curvature="0"
           style="fill:#7a7a7a" />
        <path
           d="m 6.0970334,19.606299 c 1.8897638,-2.007874 3.4251968,-3.622047 3.4645669,-3.622047 0.03937,0.03937 -0.1574803,0.629921 -0.3543307,1.299213 -1.2992126,4.094488 -1.5748031,4.881889 -1.5354331,4.921259 0,0 0.472441,-0.15748 0.984252,-0.35433 3.3464565,-1.456693 7.2440945,-1.653544 11.3779525,-0.551181 1.850394,0.47244 2.559055,0.47244 3.464567,0 0.511811,-0.275591 0.708662,-0.433071 0.944882,-0.826772 0.433071,-0.669291 0.472441,-1.614173 0.19685,-2.480315 -0.669291,-1.889764 -3.267716,-4.330709 -5.708661,-5.393701 -1.259842,-0.551181 -1.338583,-0.551181 -1.614173,-0.27559 l -0.236221,0.23622 1.023622,1.259843 c 0.551181,0.669291 1.141733,1.417323 1.220473,1.614173 0.23622,0.472441 0.27559,1.220472 0.03937,1.692913 -0.314961,0.669292 -1.259843,1.141732 -2.007874,0.984252 -0.314961,-0.07874 -0.433071,-0.03937 -0.748032,0.196851 -0.866141,0.629921 -1.811023,0.472441 -2.598425,-0.472441 -0.629921,-0.708662 -0.787401,-1.062993 -0.826771,-1.771654 0,-0.354331 -0.118111,-0.787401 -0.196851,-0.944882 -0.11811,-0.23622 -0.15748,-0.511811 -0.15748,-0.866141 l 0.03937,-0.551182 -0.511811,-0.11811 c -0.708661,-0.19685 -1.535433,-0.590551 -2.007874,-0.944882 -0.236221,-0.15748 -0.433071,-0.31496 -0.5118111,-0.31496 -0.07874,0 -0.5905512,0.23622 -1.1417323,0.511811 -3.8188977,1.968504 -6.2992126,5.629921 -6.6929134,9.763779 -0.03937,0.393701 -0.07874,0.905512 -0.1181102,1.102362 l -0.03937,0.354331 0.4330709,-0.433071 c 0.1968504,-0.19685 1.9291338,-2.007874 3.8188975,-4.015748 z"
           id="path3814"
           inkscape:connector-curvature="0"
           style="fill:#7a7a7a" />
      </g>
    </g>
  </g>
  <g
     inkscape:groupmode="layer"
     id="layer2"
     inkscape:label="Layer 2"
     transform="translate(-7.1158062,-8)">
    <g
       transform="matrix(0.37001336,0,0,-0.37002196,10.247515,480.90155)"
       inkscape:label="ink_ext_XXXXXX"
       id="g3887">
      <g
         transform="scale(0.1)"
         id="g3889">
        <path
           inkscape:connector-curvature="0"
           id="path3891"
           style="fill:#100f0d;fill-opacity:1;fill-rule:nonzero;stroke:none"
           d="M 901.547,500.352 500.355,901.527 c -23.093,23.11 -60.566,23.11 -83.691,0 L 333.363,818.211 439.039,712.535 c 24.559,8.293 52.723,2.727 72.293,-16.847 19.688,-19.696 25.207,-48.102 16.699,-72.75 L 629.887,521.094 c 24.648,8.496 53.066,3.004 72.754,-16.711 27.5,-27.492 27.5,-72.059 0,-99.574 -27.52,-27.516 -72.078,-27.516 -99.61,0 -20.683,20.703 -25.801,51.097 -15.312,76.582 l -95,94.992 V 326.414 c 6.699,-3.32 13.027,-7.742 18.613,-13.312 27.5,-27.497 27.5,-72.059 0,-99.598 -27.5,-27.488 -72.09,-27.488 -99.57,0 -27.5,27.539 -27.5,72.101 0,99.598 6.797,6.789 14.668,11.925 23.066,15.363 v 252.281 c -8.398,3.438 -16.25,8.531 -23.066,15.367 -20.828,20.821 -25.84,51.395 -15.157,76.977 L 292.426,777.285 17.3281,502.211 c -23.10544,-23.129 -23.10544,-60.602 0,-83.711 L 418.539,17.3242 c 23.098,-23.10545 60.559,-23.10545 83.691,0 L 901.547,416.641 c 23.117,23.113 23.117,60.605 0,83.711" />
      </g>
    </g>
  </g>
</svg>
